<?xml version="1.0" standalone="no"?>
<!DOCTYPE svg PUBLIC "-//W3C//DTD SVG 1.1//EN" "http://www.w3.org/Graphics/SVG/1.1/DTD/svg11.dtd" >
<svg xmlns="http://www.w3.org/2000/svg">
<metadata>Generated by IcoMoon</metadata>
<defs>
<font id="icomoon" horiz-adv-x="512">
<font-face units-per-em="512" ascent="480" descent="-32" />
<missing-glyph horiz-adv-x="512" />
<glyph unicode="&#x20;" d="" horiz-adv-x="256" />
<glyph unicode="&#xe600;" d="M449.376 192.352c35.168 0 15.392-95.008-15.392-95.008 15.392 0 0-79.168-30.816-79.168 0-31.648-30.816-47.488-61.6-47.488-130.144 0-84.416 33.472-215.68 47.488v253.344c115.968 35.744 231.072 125.376 231.072 205.824 25.536 0 92.448-31.648 0-190.016 0 0 77.024 0 92.448 0 46.176 0 30.784-94.976-0.032-94.976zM90.656 271.52v-253.344h35.232v-15.84h-61.632c-16.96 0-30.816 21.376-30.816 47.52v189.984c0 26.112 13.888 47.488 30.816 47.488h61.6v-15.808h-35.2z" />
<glyph unicode="&#xe601;" d="M1.568 336h508.96l-254.496-254.496-254.464 254.496z" />
<glyph unicode="&#xe602;" d="M255.008 480c-140.832 0-255.008-114.176-255.008-255.008s114.176-255.008 255.008-255.008c140.832 0 255.008 114.144 255.008 255.008 0 140.832-114.176 255.008-255.008 255.008zM277.376 106.688l-26.88-26.528c-17.024-16.768-39.52-25.088-61.632-25.088h-0.16c-22.208-0.032-44.544 8.544-61.312 25.088l-2.656 2.624c-16.992 16.672-25.504 38.848-25.504 60.672s8.64 43.904 25.504 60.512l62.464 61.536c16.896 16.672 39.36 25.12 61.536 25.12 17.376 0 34.944-5.216 49.888-15.488 2.432-1.216 4.736-2.88 6.784-4.896l4.832-4.736 2.688-2.656-38.080-37.504-2.688 2.624c-6.528 6.464-14.848 9.568-23.456 9.6-8.576-0.032-16.896-3.168-23.456-9.6l-62.432-61.44c-6.528-6.464-9.696-14.656-9.728-23.040 0.064-8.544 3.232-16.704 9.728-23.2l2.656-2.624c6.592-6.432 14.848-9.568 23.232-9.568 8.768 0.032 17.184 3.136 23.712 9.568l26.912 26.496c10.496 10.368 27.552 10.368 38.048 0 10.528-10.336 10.528-27.168 0-37.472zM399.584 246.144l-62.4-61.472c-17.024-16.768-39.52-25.088-61.632-25.088h-0.16c-22.208-0.032-44.48 8.576-61.28 25.088l-2.656 2.656 38.080 37.504 2.624-2.656c6.56-6.432 14.848-9.568 23.232-9.568 8.768 0.032 17.184 3.136 23.712 9.568l62.432 61.472c6.528 6.464 9.696 14.656 9.728 23.168-0.032 8.416-3.2 16.64-9.728 23.072l-2.656 2.656c-6.56 6.4-14.88 9.536-23.456 9.568-8.608-0.032-16.896-3.168-23.456-9.568l-25.664-25.344c-10.528-10.336-27.552-10.336-38.080 0-10.496 10.368-10.496 27.168 0 37.504l25.664 25.312c16.96 16.672 39.36 25.12 61.536 25.12s44.64-8.416 61.536-25.12l2.656-2.656c16.928-16.608 25.568-38.688 25.504-60.576 0.032-21.792-8.512-43.936-25.536-60.64z" />
<glyph unicode="&#xe603;" d="M0 352.736h127.264v127.264h-127.264v-127.264zM0 161.888h127.264v127.232h-127.264v-127.232zM0-28.992h127.264v127.232h-127.264v-127.232zM190.88 480v-127.264h318.112v127.264h-318.112zM190.88 161.888h318.112v127.232h-318.112v-127.232zM190.88-28.992h318.112v127.232h-318.112v-127.232z" />
<glyph unicode="&#xe604;" d="M425.248 156c-29.184 0-54.944-14.88-70.144-37.504l-185.248 90.816c0.832 4.832 1.472 9.728 1.472 14.784 0 8.448-1.6 16.448-3.904 24.128l194.56 72.832c15.488-17.696 37.984-29.088 63.264-29.088 46.784 0 84.672 38.080 84.672 85.024 0 47.008-37.888 85.056-84.672 85.056-46.72 0-84.64-38.048-84.64-85.056 0-3.136 0.608-6.112 0.896-9.184l-203.84-76.288c-14.208 10.848-31.712 17.536-50.944 17.536-46.752 0-84.672-38.016-84.672-84.928 0-46.88 37.888-84.96 84.672-84.96 23.328 0 44.48 9.504 59.776 24.832l194.336-95.296c1.216-45.952 38.432-82.816 84.416-82.816 46.784 0 84.672 38.048 84.672 85.024s-37.888 85.088-84.672 85.088z" />
<glyph unicode="&#xe605;" d="M382.144 28.096c-1.312 74.432-47.328 138.144-113.216 166.88 30.304 22.816 50.176 58.112 50.176 98.272 0 68.864-57.44 124.672-128.256 124.672-70.848 0-128.288-55.808-128.288-124.672 0-40.064 19.776-75.328 50.016-98.112-65.344-28.352-111.136-91.136-113.376-164.64-0.32-1.44-0.896-2.816-0.896-4.352l0.192-1.952c0-11.392 9.536-20.672 21.28-20.672s21.28 9.28 21.28 20.672l-0.032 0.256h0.416c0 0.032 0 0.032 0 0.064 0 78.208 63.712 141.504 143.36 144.672 2.080-0.096 4-0.576 6.080-0.576s4 0.48 6.048 0.576c78.944-3.136 142.016-65.376 143.136-142.656 0-0.128-0.064-0.256-0.064-0.384l0.192-1.952c0-11.392 9.536-20.672 21.28-20.672s21.28 9.28 21.28 20.672l-0.192 1.952c0 0.704-0.352 1.28-0.416 1.952zM190.496 210.624c-47.136 0-85.312 37.12-85.312 82.912 0 45.824 38.176 82.944 85.312 82.944s85.312-37.12 85.312-82.944c0-45.792-38.176-82.912-85.312-82.912zM510.176 26.144c0 0.672-0.352 1.28-0.416 1.952-1.28 73.472-46.24 136.384-110.784 165.6v0.096c0 0.96-0.48 1.792-0.576 2.752 29.216 22.816 48.32 57.408 48.32 96.704 0 65.856-52.672 119.2-119.2 123.808l-0.672-0.64c-10.56-0.544-19.104-8.928-19.104-19.456l0.192-1.824c0-10.848 9.056-19.648 20.224-19.648 2.912 0 5.664 0.672 8.16 1.728 0.736-1.184 1.664-2.24 2.336-3.456 37.152-8.992 64.768-41.344 64.768-80.256 0-30.24-16.832-56.352-41.76-70.784l-2.24-2.176c-8.192-2.88-14.56-9.088-17.536-17.056l-3.072-2.976c0.704-0.576 1.344-1.28 2.048-1.856-0.32-1.664-1.024-3.168-1.024-4.928l0.256-2.656c0-15.872 13.248-28.704 29.6-28.704 2.112 0 3.968 0.736 5.984 1.152 2.208-2.752 4.768-5.216 6.848-8.096 18.048-8.224 34.176-19.776 47.328-34.080 23.2-25.184 37.312-58.336 37.856-94.72 0-0.16-0.096-0.32-0.096-0.512l0.224-1.952c0-11.392 9.504-20.672 21.248-20.672 11.776 0 21.28 9.28 21.28 20.672l-0.192 1.984z" />
<glyph unicode="&#xe606;" d="M346.464 223.744l155.712-156.512c10.144-10.208 10.144-26.72 0-36.864l-54.976-55.232c-10.112-10.144-26.528-10.144-36.608 0l-155.744 156.544-155.648-156.544c-10.144-10.144-26.496-10.144-36.672 0l-54.912 55.232c-10.144 10.144-10.144 26.656 0 36.864l155.648 156.512-155.648 156.544c-10.144 10.144-10.144 26.656 0 36.832l54.912 55.264c10.144 10.176 26.528 10.176 36.672 0l155.68-156.544 155.744 156.544c10.048 10.176 26.464 10.176 36.608 0l54.976-55.264c10.144-10.176 10.144-26.656 0-36.832l-155.744-156.544z" />
<glyph unicode="&#xe607;" d="M472.157 300.53h-237.071v117.321l-197.508-195.571 197.508-195.571v117.348h237.071z" />
<glyph unicode="&#xe608;" d="M305.6 167.552v-178.56c0-11.584-9.44-20.992-21.088-20.992h-63.2c-11.648 0-21.088 9.408-21.088 20.992v178.56h-179.168c-11.648 0-21.056 9.408-21.056 21.024v62.976c0 11.616 9.408 21.024 21.056 21.024h179.136v178.56c0 11.584 9.44 20.992 21.088 20.992h63.232c11.648 0 21.088-9.408 21.088-20.992v-178.56h179.136c11.68 0 21.088-9.408 21.088-21.024v-63.008c0-11.584-9.408-20.992-21.088-20.992h-179.136z" />
<glyph unicode="&#xe609;" d="M432 416l-240-240-112 112-80-80 192-192 320 320z" />
<glyph unicode="&#xe60a;" d="M308.16 172.8l-282.56-0.768c-11.584-0.064-20.928 9.312-20.896 20.864l0.192 62.784c0.032 11.552 9.44 20.96 20.992 20.992l460.544 1.28c11.552 0.032 20.896-9.344 20.864-20.896l-0.192-62.784c0-11.552-9.408-20.96-20.96-20.992l-177.984-0.48z" />
<glyph unicode="&#xe60b;" d="M255.968 347.264c-15.712 0-28.448-12.736-28.448-28.448v-96c0-15.744 12.736-28.48 28.448-28.48s28.448 12.704 28.448 28.48v96c0 15.712-12.736 28.448-28.448 28.448zM255.968 480c-141.376 0-255.968-114.624-255.968-256 0-141.408 114.624-256 256-256s256 114.592 256 256c0 141.376-114.624 256-256.032 256zM255.968 24.896c-109.984 0-199.104 89.152-199.104 199.104s89.152 199.104 199.104 199.104 199.136-89.152 199.136-199.104c0-109.952-89.152-199.104-199.136-199.104zM255.968 157.6c-15.712 0-28.448-12.672-28.448-28.384 0-15.744 12.736-28.544 28.448-28.544s28.448 12.768 28.448 28.544c0 15.68-12.736 28.384-28.448 28.384z" />
<glyph unicode="&#xe60c;" d="M256.448 479.488c-141.408 0-256.032-114.624-256.032-256 0-141.408 114.624-256 256.032-256 141.376 0 256 114.592 256 256 0 141.376-114.592 256-256 256zM254.336 16.192c-114.208 0-206.752 92.544-206.752 206.784 0 114.144 92.576 206.72 206.752 206.72 114.208 0 206.784-92.576 206.784-206.72 0-114.272-92.544-206.784-206.784-206.784zM314.048 211.072h-58.624v99.104c0 10.752-8.736 19.488-19.456 19.488-10.784 0-19.52-8.704-19.52-19.488v-118.624c0-10.784 8.736-19.488 19.52-19.488h78.080c10.816 0 19.52 8.704 19.52 19.488 0.032 10.816-8.704 19.52-19.52 19.52z" />
<glyph unicode="&#xe60d;" d="M71.712 397.984l189.088-175.136-190.624-174.080 86.24-79.872 279.168 258.592-272.64 252.512-91.232-82.016z" />
<glyph unicode="&#xe60e;" d="M256.224 480c-141.504 0-256.224-114.72-256.224-256.224s114.72-256.224 256.224-256.224c141.472 0 256.192 114.72 256.192 256.224s-114.688 256.224-256.192 256.224zM221.248 74.4l-50.4 46.688 111.392 101.728-110.496 102.368 53.312 47.936 159.36-147.616-163.168-151.104z" />
<glyph unicode="&#xe60f;" d="M178.816 180.256c-12.864-1.344-22.080-12.544-22.080-23.296 0-10.72 10.336-18.080 23.2-16.64 12.8 1.472 23.2 11.328 23.2 22.048s-9.568 19.264-24.32 17.888zM211.392 189.088c-4.416-3.2-5.312-9.28-2.912-13.152 2.336-3.808 7.68-4.352 12-0.992 4.256 3.296 5.92 9.152 3.616 13.024s-7.584 4.96-12.704 1.12zM256.096 480c-141.216 0-255.936-114.592-255.936-255.904 0-141.28 114.72-255.744 255.936-255.744 141.344 0 255.904 114.464 255.904 255.744 0 141.312-114.528 255.904-255.904 255.904zM396 160c-28.224-59.936-121.248-89.12-190.144-83.68-65.504 5.088-149.728 26.848-158.432 106.112 0 0-4.608 35.968 30.208 82.368 0 0 50.080 69.92 108.384 89.888 58.336 19.872 65.152-13.728 65.152-33.6-3.104-16.864-8.896-26.752 12.992-19.968 0 0 57.344 26.624 80.992 3.008 19.008-19.072 3.136-45.28 3.136-45.28s-7.872-8.736 8.32-11.904c16.288-3.232 67.552-26.976 39.392-86.944zM339.392 325.472c-6.208 0-11.264 5.056-11.264 11.264 0 6.304 5.024 11.36 11.264 11.36 0 0 70.336 12.992 61.984-62.56 0-0.448-0.064-0.8-0.224-1.184-0.736-5.344-5.472-9.44-11.040-9.44-6.176 0-11.328 4.992-11.328 11.264 0-0.064 11.168 50.432-39.392 39.296zM458.144 272.8c-1.792-27.232-8.16-17.696-15.712-17.696-9.024 0-16.352 4.544-16.352 13.6 0 7.84 3.232 14.432 3.232 14.432 0.96 3.296 8.608 23.104-4.992 53.76-25.056 42.016-75.36 42.272-81.344 39.872-6.016-2.336-14.88-3.744-14.88-3.744-9.056 0-16.416 7.296-16.416 16.256 0 7.552 5.056 13.824 11.968 15.744 0 0 0.224 0.032 0.48 0.096 0.48 0.096 0.928 0.192 1.504 0.256 6.976 1.344 31.968 10.912 56.288 5.248 43.552-10.176 103.264-56.224 76.384-137.856h-0.16zM210.944 260.896c-68.384-3.104-123.712-39.776-123.712-85.472 0-45.632 55.328-79.936 123.712-76.8 68.448 3.168 123.904 45.984 123.904 91.616s-55.456 73.824-123.904 70.656zM257.536 145.952c-20.928-27.040-62.4-40.224-102.656-18.4-19.168 10.368-18.464 30.72-18.464 30.72s-7.936 64.48 60.896 72.544c68.896 8 81.216-57.856 60.224-84.864z" />
<glyph unicode="&#xe610;" d="M256.352 480c-141.472 0-256.352-114.688-256.352-256.256 0-141.504 114.88-256.192 256.352-256.192 141.536 0 256.288 114.688 256.288 256.192 0 141.568-114.752 256.256-256.288 256.256zM96.096 63.168c0.416-4.992-3.296-8.768-8.256-8.768h-0.896c-4.64 0-8.544 2.432-8.992 7.168-6.848 76.416 17.312 129.984 38.88 161.952 7.776 11.616 15.744 20.896 22.944 28.512-1.792 4.096-2.816 8.544-2.816 13.344 0 18.56 15.136 33.536 33.728 33.536 18.688 0 33.664-15.072 33.664-33.632 0-18.688-14.976-33.76-33.664-33.76-7.168 0-13.76 2.24-19.296 6.048-6.336-6.752-13.248-14.784-20-24.896-28.576-42.752-40.544-92.832-35.296-149.504zM169.184 161.664c-7.648 0-15.424 0.832-22.848 2.496-4.896 1.152-7.808 5.984-6.784 10.816 1.184 4.896 5.952 7.968 10.816 6.816 6.112-1.408 12.448-2.112 18.816-2.112 46.176 0 83.68 37.504 83.68 83.584s-37.504 83.584-83.68 83.584c-46.080 0-83.648-37.504-83.648-83.584 0-13.376 3.072-26.24 9.184-38.112 2.336-4.416 0.576-9.888-3.968-12.128-4.448-2.336-9.824-0.576-12.128 3.872-7.36 14.208-11.168 30.336-11.168 46.368 0 56.096 45.6 101.728 101.728 101.728 56.16 0 101.792-45.632 101.792-101.728 0-55.968-45.632-101.6-101.792-101.6zM358.368 279.904c-9.024-0.192-18.176 1.696-26.4 5.632-28.736 13.664-41.024 48.128-27.328 76.864 13.632 28.736 48.128 41.024 76.864 27.36 28.736-13.632 41.024-48.192 27.328-76.832-2.016-3.968-4.224-7.712-6.912-11.136-1.728-2.176-4.992-2.592-7.232-0.832s-2.56 5.024-0.8 7.232c2.208 2.752 4.096 5.92 5.6 9.184 11.296 23.584 1.28 52-22.4 63.104-23.648 11.264-51.968 1.248-63.136-22.496-11.328-23.616-1.312-51.904 22.4-63.168 6.848-3.232 14.24-4.8 21.728-4.512 2.848 0.032 5.248-2.176 5.312-5.024 0.096-2.88-2.112-5.216-5.024-5.376zM438.336 241.536c-40.8 15.104-62.688 40.64-73.824 59.456-4 6.816-6.944 13.28-9.024 18.784-2.656 0.032-5.12 0.736-7.552 1.792-9.664 4.64-13.664 15.936-9.088 25.472 4.512 9.536 15.84 13.568 25.44 9.024 9.504-4.576 13.536-15.936 9.056-25.44-1.76-3.616-4.576-6.496-7.808-8.288 2.016-5.024 4.608-10.592 8.16-16.512 14.944-25.088 37.952-43.456 68.192-54.656 2.688-1.024 4-3.872 3.104-6.56-0.096-0.192-0.192-0.32-0.192-0.48-1.216-2.336-3.904-3.488-6.464-2.592z" />
<glyph unicode="&#xe611;" d="M348.672 278.656h-177.888l117.152-20.064-125.824-102.56h190.88l-112.8 24.416zM255.872 480.32c-141.44 0-256.16-114.656-256.16-256.128s114.688-256.16 256.16-256.16c141.472-0.032 256.128 114.656 256.128 256.128s-114.656 256.16-256.128 256.16zM422.4 270.048l-65.088-55.2 21.632-138.912c-4.352-4.352-4.48-4.352-8.8-4.352l-112.992 69.472-113.28-69.472c-8.672 0-9.536 0-9.536 4.352l15.552 138.912-68.672 60.8-23.488 16.64h-6.656v0.736l6.656-0.704h134.784l17.312 30.88 43.392 91.712c4.32 0 4.32 0 8.672 0l47.712-91.712 17.408-30.912h117.12c4.352 0 4.352 2.528 4.352-1.792l-26.080-20.448z" />
<glyph unicode="&#xe612;" d="M469.632 463.040h-427.296c-23.616 0-42.72-19.008-42.72-42.496v-393.12c0-23.488 19.136-42.496 42.72-42.496h427.296c23.616 0 42.752 19.008 42.752 42.496v393.12c0 23.488-19.136 42.496-42.752 42.496zM272 409.92c14.752 0 26.688-11.872 26.688-26.56s-11.936-26.56-26.688-26.56c-14.688 0-26.688 11.872-26.688 26.56 0 14.656 12 26.56 26.688 26.56zM175.84 409.92c14.752 0 26.72-11.872 26.72-26.56s-12-26.56-26.72-26.56c-14.72 0-26.656 11.872-26.656 26.56 0 14.656 11.936 26.56 26.656 26.56zM79.712 409.92c14.72 0 26.72-11.872 26.72-26.56s-12-26.56-26.72-26.56c-14.752 0-26.72 11.872-26.72 26.56 0 14.656 11.968 26.56 26.72 26.56zM458.976 61.44c0-12.928-10.496-23.36-23.488-23.36h-358.976c-13.056 0-23.52 10.432-23.52 23.36v229.44c0 12.992 10.464 23.392 23.52 23.392h358.944c12.992 0 23.488-10.4 23.488-23.392v-229.44zM297.408 248.128c-2.176 1.536-4.928 2.4-7.808 2.4-7.328 0-13.216-5.568-13.216-12.416v-22.976c-65.536-0.032-119.52-47.84-126.976-109.28-0.064-0.256-0.224-2.112-0.224-2.944 0-6.496 5.472-11.808 12.192-11.808h30.624c10.016 0 17.6 6.752 18.656 12.32 5.888 30.016 33.056 52.64 65.728 52.64v-23.008c0-6.816 5.92-12.448 13.216-12.448 2.88 0 5.632 0.928 7.808 2.496l69.856 50.688c8.096 7.808 8.096 15.744 0 23.584l-69.856 50.752z" />
<glyph unicode="&#xe613;" d="M418.848 412.416h-85.632c-7.232 35.776-39.104 62.816-77.216 62.816s-69.952-27.040-77.216-62.816h-85.6c-23.232 0-42.016-18.72-42.016-41.888v-355.872c0-23.136 18.784-41.888 42.016-41.888h325.664c23.2 0 42.016 18.752 42.016 41.888v355.872c-0.032 23.168-18.848 41.888-42.016 41.888zM256 422.88c14.496 0 26.24-11.744 26.24-26.144 0-14.464-11.744-26.176-26.24-26.176s-26.24 11.712-26.24 26.144c0 14.432 11.744 26.176 26.24 26.176zM408.32 48.16c0-12.768-10.304-23.040-23.104-23.040h-258.432c-12.8 0-23.104 10.24-23.104 23.040v288.864c0 12.768 10.304 23.040 23.104 23.040h50.432v-18.816c0-12.768 10.304-23.040 23.104-23.040h111.36c12.8 0 23.136 10.272 23.136 23.040v18.816h50.4c12.768 0 23.104-10.24 23.104-23.040v-288.864zM297.6 255.392c-16.32 0-37.408-9.536-41.6-25.664-4.16 16.128-25.28 25.664-41.568 25.664-32.128 0-58.208-24.832-58.208-57.888 0-62.016 59.296-78.592 91.456-115.808 0.288-0.416 0.64-0.736 0.992-1.088 4.064-4.032 10.656-4.032 14.72 0 0.384 0.352 0.64 0.672 0.896 1.088 32.256 37.312 91.456 53.536 91.456 115.808 0.032 33.088-26.016 57.888-58.144 57.888zM326.688 193.376c-4.064 0-7.456 2.912-8.192 6.816-2.048 8.32-9.216 15.936-18.176 17.984-3.936 0.704-6.912 4.096-6.912 8.16 0 4.544 3.744 8.384 8.352 8.384 6.624 0 14.624-4.672 21.376-11.296 6.848-6.752 11.904-15.84 11.904-21.792 0-4.512-3.776-8.256-8.352-8.256z" />
<glyph unicode="&#xe614;" d="M468.448 416.992h-127.744v19.296c0 13.056-10.432 23.584-23.424 23.584h-123.52c-12.992 0-23.424-10.528-23.424-23.584v-19.296h-127.744c-23.52 0-42.592-19.2-42.592-42.912v-343.104c0-23.68 19.072-42.88 42.592-42.88h425.856c23.488 0 42.56 19.2 42.56 42.88v343.104c0 23.712-19.072 42.912-42.56 42.912zM457.76 65.312c0-13.056-10.432-23.552-23.424-23.552h-357.664c-12.992 0-23.424 10.496-23.424 23.552v274.496c0 13.056 10.432 23.552 23.424 23.552h93.664v-19.296c0-13.088 10.432-23.584 23.424-23.584h123.488c12.992 0 23.424 10.496 23.424 23.584v19.296h93.632c12.992 0 23.424-10.528 23.424-23.552v-274.496zM171.168 266.208h-74.432c-6.848 0-12.416-5.568-12.416-12.416v-31.040c0-4.352 1.792-8.32 4.704-11.104l13.472-13.504c-9.216-8.512-15.072-20.768-15.072-34.4 0-25.632 20.832-46.496 46.528-46.496s46.496 20.864 46.496 46.496c0 13.632-5.824 25.888-15.040 34.4l13.472 13.504c2.88 2.784 4.672 6.752 4.672 11.104v31.040c0.032 6.848-5.536 12.416-12.384 12.416zM127.776 244.48c0 3.424 2.784 6.208 6.176 6.208s6.208-2.784 6.208-6.208v-27.936c0-3.424-2.816-6.208-6.208-6.208s-6.176 2.784-6.176 6.208v27.936zM99.84 222.752v21.728c0 3.424 2.784 6.208 6.208 6.208s6.208-2.784 6.208-6.208v-21.728c0-3.392-2.784-6.208-6.208-6.208-3.392 0-6.208 2.784-6.208 6.208zM157.792 168.576l-12.16-8.256c0 0 3.904-14.752 4-15.2 0.096-0.256 0.128-0.512 0.128-0.736 0-1.248-1.056-2.304-2.4-2.304-0.576 0-1.152 0.192-1.568 0.576l-11.872 9.312-11.872-9.312c-0.416-0.384-0.96-0.576-1.568-0.576-1.312 0-2.368 1.056-2.368 2.304 0 0.256 0.032 0.512 0.128 0.736 0.16 0.448 4.128 15.136 4.128 15.136l-12.288 8.32c-0.544 0.352-0.96 1.056-0.96 1.792 0 1.312 1.12 2.688 2.432 2.688h14.464l5.664 13.888c0.32 0.992 1.216 1.696 2.272 1.696s2.016-0.672 2.304-1.696l5.632-13.888h14.464c1.344 0 2.432-1.376 2.432-2.688 0-0.736-0.384-1.44-0.992-1.792zM168.064 222.752c0-3.392-2.784-6.208-6.208-6.208-3.392 0-6.176 2.784-6.176 6.208v21.728c0 3.424 2.784 6.208 6.176 6.208 3.424 0 6.208-2.784 6.208-6.208v-21.728zM246.656 269.28h-14.176l-0.192-0.16-0.288-0.192-0.192-0.16-0.48-0.352-0.192-0.16-1.152-0.864-0.16-0.192-19.872-14.688v-22.432l14.016 5.504v-83.040h-20.544v-23.488h64.576v23.488h-21.344v116.736zM305.568 271.168c-10.432 0-18.688-3.968-24.672-11.872-7.136-9.696-10.752-28.928-10.848-57.728 0-29.76 3.392-50.208 10.176-61.152 5.792-8.736 14.24-13.184 25.344-13.248 12.16 0 21.024 5.248 26.752 15.68 6.016 12.128 8.992 32 8.992 59.776 0 27.936-3.616 46.752-10.88 56.32-6.368 8.032-14.784 12.128-24.864 12.224zM313.632 157.696c-2.048-4.64-4.672-6.944-8.064-7.072-3.104 0-5.728 2.048-7.808 6.24-3.36 7.712-5.056 22.56-5.056 44.704 0 20.16 1.664 33.632 4.832 40.416 1.792 3.808 4.48 5.728 8 5.728 3.136 0 5.824-2.080 8.064-6.24 3.328-6.336 4.96-19.328 4.96-38.848 0.032-22.176-1.632-37.184-4.928-44.928zM391.072 271.168c-10.496 0-18.752-3.968-24.704-11.872-7.168-9.696-10.752-28.928-10.88-57.728 0-29.76 3.392-50.208 10.176-61.152 5.824-8.736 14.176-13.184 25.408-13.248 12.096 0 20.992 5.248 26.688 15.68 6.016 12.128 9.024 32 9.024 59.776 0 27.936-3.648 46.752-10.88 56.32-6.464 8.032-14.752 12.128-24.832 12.224zM399.008 157.696c-1.952-4.64-4.672-6.944-7.936-7.072-3.136 0-5.76 2.048-7.872 6.24-3.328 7.68-4.992 22.56-4.992 44.704 0 20.16 1.6 33.632 4.8 40.416 1.856 3.808 4.48 5.728 8.064 5.728 3.072 0 5.76-2.080 7.936-6.24 3.36-6.336 5.056-19.328 5.056-38.848 0-22.176-1.696-37.184-5.056-44.928z" />
<glyph unicode="&#xe615;" d="M451.040 110.944c-22.496 29.28-49.696 48.256-88.736 59.040l-36.64-127.488c0-11.776-9.632-21.408-21.44-21.408s-21.44 9.632-21.44 21.408v101.44c0 14.784-12 26.72-26.784 26.72-14.752 0-26.752-11.936-26.752-26.72v-101.44c0-11.776-9.696-21.408-21.472-21.408s-21.44 9.632-21.44 21.408l-36.576 127.488c-39.040-10.88-66.272-29.76-88.8-59.040-8.896-11.584-13.728-34.72-14.016-47.104 0.096-3.264 0-6.976 0-10.752v-42.656c0-23.648 19.2-42.784 42.88-42.784h332.416c23.744 0 42.88 19.136 42.88 42.784v42.656c0 3.776-0.064 7.488 0 10.752-0.352 12.384-5.152 35.488-14.080 47.104zM143.424 367.328c0-62.368 39.008-153.984 112.576-153.984 72.288 0 112.608 91.616 112.608 153.984 0 62.4-50.432 113.024-112.608 113.024s-112.576-50.624-112.576-113.024z" />
<glyph unicode="&#xe616;" d="M441.44 293.568v162.304h-92.704v-69.536l-92.736 92.704-255.008-255.008h46.368v-254.976h139.104v208.64h139.104v-208.64h139.072v254.976h46.368l-69.568 69.536zM225.024-31.072h61.952v185.504h-61.952v-185.504z" />
<glyph unicode="&#xe617;" d="M327.392 171.264h-122.4v142.816c0 11.296-9.12 20.416-20.384 20.416s-20.416-9.152-20.416-20.416v-163.2c0-11.264 9.152-20.416 20.416-20.416h142.816c11.296 0 20.416 9.152 20.416 20.416s-9.152 20.384-20.448 20.384z" />
<glyph unicode="&#xe618;" d="M449.248 480l33.622-285.78-37.74-4.44-30.026 255.22h-318.208l-30.026-255.22-37.74 4.44 33.621 285.78zM128 416h256v-32h-256zM128 352h256v-32h-256zM128 288h256v-32h-256zM128 224h256v-32h-256zM496 160h-480c-8.8 0-13.723-6.83-10.94-15.179l53.88-161.642c2.783-8.349 12.26-15.179 21.060-15.179h352c8.8 0 18.276 6.83 21.060 15.179l53.881 161.643c2.783 8.348-2.141 15.178-10.941 15.178zM320 96h-128v32h128v-32z" />
<glyph unicode="&#xe619;" d="M149.792 476.288l253.664-250.080-31.936-31.584-253.696 250.048 31.968 31.616zM113.76 2.208l225.792 224 31.936-31.584-225.792-223.968-31.936 31.552z" />
<glyph unicode="&#xe61a;" d="M255.968-24.384c-137.184 0-248.384 111.2-248.384 248.384s111.232 248.384 248.384 248.384c137.152 0 248.416-111.232 248.416-248.384 0-137.184-111.264-248.384-248.416-248.384zM391.36 294.112c5.504 5.536 5.504 14.528 0 20.064l-30.112 30.080c-5.568 5.536-14.496 5.536-20.064 0l-85.216-85.248-85.248 85.248c-5.536 5.536-14.528 5.536-20.064 0l-30.080-30.080c-5.536-5.536-5.536-14.528 0-20.064l85.248-85.248-85.248-85.248c-5.536-5.504-5.536-14.496 0-20.064l30.080-30.112c5.536-5.504 14.528-5.504 20.064 0l85.248 85.248 85.248-85.248c5.568-5.504 14.496-5.504 20.064 0l30.112 30.112c5.504 5.568 5.504 14.56 0 20.064l-85.28 85.248 85.248 85.248z" />
<glyph unicode="&#xe61b;" d="M469.92 290.464l-28.576-18.144c7.68-20.96 12.096-43.488 12.096-67.104 0-107.744-87.328-195.040-195.008-195.040-16.192 0-31.84 2.176-46.88 5.92-3.008 7.648-1.888 18.432-1.888 18.432 51.808 1.024 60.96 48.768 60.96 48.768 5.088 48.256-30.496 60.928-30.496 60.928-13.216 26.432-6.080 51.808-6.080 51.808 27.936 113.28 85.344 134.080 85.344 134.080 11.68 10.144 27.392 3.072 27.392 3.072 9.12-19.808 36.608-15.264 36.608-15.264 51.264 13.216 67.040 48.736 67.040 48.736 13.952 61.984-64 103.616-64 103.616-15.232 9.152-27.424 0-27.424 0-53.312-35.040-76.16-79.232-76.16-79.232-105.184-152.32-103.648-274.208-103.648-274.208-8.64-59.936 18.304-76.192 18.304-76.192-2.88-8.096-1.504-15.52 0.224-20.704-77.952 25.568-134.304 98.752-134.304 185.28 0 102.912 79.776 186.976 180.8 194.304l-5.888 33.28c-118.336-9.472-211.52-108.32-211.52-229.12 0-127.040 103.008-230.048 230.048-230.048 127.072 0 230.080 103.008 230.080 230.048 0.032 30.72-6.112 59.968-17.024 86.784z" />
<glyph unicode="&#xe61c;" d="M252.032-30.176l-252.032 251.712h168.832v258.464h173.76v-258.464h164.672l-255.232-251.712z" />
<glyph unicode="&#xe61d;" d="M248.832 299.872l-104.832-84.224h-81.12v-65.184l-0.064-0.032 0.064-0.032v-64.512h81.536l104.384-82.592v82.592h0.032v213.984zM234.56 100.32v0l-0.032-67.36-85.12 67.36h-72.224v100.928h71.84l85.504 68.704v-54.272l0.032-14.4v-100.96zM282.24 224.928c15.552-20.928 23.776-45.824 23.776-72.032 0-26.784-8.576-52.128-24.672-73.248l11.296-8.8c18.112 23.712 27.712 52.096 27.712 82.048 0 29.376-9.248 57.28-26.656 80.672l-11.456-8.64zM339.872 277.184l-11.008-9.184c26.816-32.832 41.664-74.368 41.664-116.992 0-42.144-13.792-81.792-39.712-114.624l11.136-8.96c28.064 35.392 42.88 78.112 42.88 123.584-0.032 45.952-15.968 90.784-44.96 126.176zM384.48 323.968l-10.784-9.504c39.456-45.184 61.216-103.264 61.216-163.488 0-59.136-20.96-116.288-59.072-161.024l10.848-9.408c40.32 47.36 62.496 107.904 62.496 170.432 0 63.744-23.040 125.216-64.704 172.992z" />
<glyph unicode="&#xe61e;" d="M256 307.84c55.392 0 100.416-45.024 100.416-100.384 0-17.632-4.672-35.008-13.504-50.24l-86.912-150.624-86.944 150.624c-8.8 15.232-13.472 32.608-13.472 50.208 0 55.36 45.056 100.416 100.416 100.416zM256 173.984c18.464 0 33.44 14.976 33.44 33.472 0 18.432-15.008 33.44-33.44 33.44s-33.472-15.040-33.472-33.472c0-18.496 15.040-33.44 33.472-33.44zM256 319.008c-61.632 0-111.584-49.984-111.584-111.552 0-20.384 5.472-39.392 15.008-55.808l96.576-167.392 96.576 167.36c9.568 16.416 15.008 35.424 15.008 55.808 0 61.6-49.952 111.584-111.584 111.584v0zM256 185.088c-12.32 0-22.336 10.016-22.336 22.336 0 12.288 10.016 22.304 22.336 22.304 12.288 0 22.336-10.016 22.336-22.304 0-12.32-10.016-22.336-22.336-22.336v0z" />
<glyph unicode="&#xe61f;" d="M342.304-14.72c-28.352 0-97.184 36.224-154.976 114.016-54.080 72.672-80.384 125.216-80.384 160.544 0 27.84 19.232 41.12 29.568 48.256l2.528 1.76c11.392 8.128 29.152 10.784 35.968 10.784 11.904 0 16.928-6.976 20-13.088 2.56-5.088 24-51.040 26.176-56.864 3.36-8.736 2.24-21.568-8.096-28.928l-1.792-1.248c-5.088-3.552-14.624-10.144-15.936-18.176-0.64-3.904 0.672-7.936 3.968-12.416 16.576-22.336 69.504-87.936 79.072-96.896 7.456-6.976 16.928-7.968 23.392-2.528 6.72 5.632 9.664 8.96 9.696 8.96 1.248 1.152 6.496 5.312 14.976 5.312 6.208 0 12.48-2.112 18.624-6.304 16.064-10.848 52.288-35.104 52.288-35.104 5.216-4.416 11.904-15.84 4.128-30.752-8.096-15.424-33.184-47.328-59.2-47.328zM175.008 308.256c-5.92 0-20.352-2.496-28.736-8.48l-2.688-1.856c-9.632-6.688-24.224-16.736-24.224-38.080 0-32.576 25.504-82.656 77.952-153.184 57.216-76.992 122.72-108.96 144.992-108.96 18.944 0 40.704 26.528 48.192 40.704 4.8 9.28 0.288 14.24-0.672 15.168-0.16 0.032-35.776 23.872-51.648 34.624-4.128 2.784-8.032 4.128-11.68 4.128-3.616 0-5.888-1.408-6.368-1.728-0.032-0.16-3.392-3.84-10.24-9.6-11.136-9.312-27.968-8.192-39.872 2.976-10.816 10.048-65.12 77.664-80.608 98.528-5.408 7.264-7.488 14.624-6.304 21.888 2.208 13.216 14.528 21.728 21.12 26.304l1.664 1.184c5.92 4.192 4.672 11.872 3.648 14.464-1.824 4.928-22.976 50.368-25.632 55.68-2.176 4.416-3.904 6.24-8.896 6.24z" />
<glyph unicode="&#xe620;" d="M166.272 198.080l0.448 25.248 217.248 217.568-0.096 37.888-255.328-255.136v-25.152l255.264-230.496-0.352 38.88z" />
<glyph unicode="&#xe621;" d="M256.032 469.856c-135.776 0-245.856-110.080-245.856-245.856 0-135.744 110.048-245.824 245.856-245.824s245.824 110.080 245.824 245.824c0 135.776-110.048 245.856-245.824 245.856zM256.032-2.112c-124.736 0-226.176 101.44-226.176 226.112 0 124.704 101.44 226.176 226.176 226.176 124.672 0 226.144-101.44 226.144-226.176 0-124.672-101.472-226.112-226.144-226.112zM270.944 321.824l95.84-95.84h-238.592v-19.648h238.592l-95.84-95.84 13.92-13.952 119.552 119.584-119.584 119.616-13.888-13.92z" />
<glyph unicode="&#xe622;" d="M154.976 218.944h202.048v57.728h-202.048v-57.728zM169.376 262.24h173.216v-28.864h-173.216v28.864zM357.024 320h-202.048c-15.936 0-28.896-12.928-28.896-28.864v-288.672c0-15.936 12.928-28.864 28.864-28.864h202.048c15.968 0 28.864 12.928 28.864 28.864v288.672c0.064 15.936-12.864 28.864-28.832 28.864zM371.456 2.432c0-7.936-6.464-14.432-14.432-14.432h-202.048c-7.968 0-14.432 6.496-14.432 14.432v288.704c0 7.968 6.464 14.432 14.432 14.432h202.048c7.968 0 14.432-6.464 14.432-14.432v-288.704zM169.376 204.512h-14.4v-57.76h57.728v14.432h-43.328v43.328zM169.376 132.32h-14.4v-57.696h57.728v14.432h-43.328v43.264zM169.376 60.192h-14.4v-57.76h57.728v14.432h-43.328v43.328zM241.568 204.512h-14.432v-57.76h57.76v14.432h-43.328v43.328zM313.76 204.512h-14.432v-57.76h57.728v14.432h-43.296v43.328zM241.568 132.32h-14.432v-57.696h57.76v14.432h-43.328v43.264zM241.568 60.192h-14.432v-57.76h57.76v14.432h-43.328v43.328zM313.76 132.32h-14.432v-129.888h57.728v14.432h-43.296v115.456z" />
<glyph unicode="&#xe623;" d="M256.16 314.688c16.736 0 30.272 13.536 30.272 30.272s-13.536 30.272-30.272 30.272c-16.704 0-30.272-13.536-30.272-30.272s13.568-30.272 30.272-30.272zM286.432 294.496h-60.544v-20.192h20.16v-161.504h-20.16v-20.128h80.736v20.128h-20.192v181.696zM256.16 476.16c-139.328 0-252.32-112.96-252.32-252.32 0-139.392 112.992-252.352 252.32-252.352 139.36 0 252.352 112.928 252.352 252.352 0 139.392-112.992 252.32-252.352 252.32zM256.16-8.32c-128.032 0-232.128 104.16-232.128 232.16s104.096 232.128 232.128 232.128 232.16-104.128 232.16-232.128-104.128-232.16-232.16-232.16z" />
<glyph unicode="&#xe624;" d="M256 464.128c-132.64 0-240.128-107.488-240.128-240.128 0-132.608 107.488-240.096 240.128-240.096 132.576 0 240.096 107.488 240.096 240.096 0.032 132.64-107.488 240.128-240.096 240.128zM256 13.44c-115.904 0-210.112 94.688-210.112 210.56 0 115.904 94.24 210.112 210.112 210.112 115.84 0 210.048-94.24 210.048-210.112s-94.208-210.56-210.048-210.56zM271.008 230.080v144c0 8.288-6.72 15.008-15.008 15.008-8.32 0-15.040-6.72-15.040-15.008v-150.080c0-4.288 1.888-8.096 4.8-10.848 0.256-0.288 0.32-0.608 0.544-0.832l74.304-74.24c5.856-5.888 15.328-5.888 21.216 0s5.888 15.36 0 21.184l-70.816 70.816z" />
<glyph unicode="&#xe625;" d="M491.488 395.936c-11.2 11.36-29.312 11.36-40.512 0l-268.896-275.072-121.12 123.104c-11.168 11.36-29.312 11.36-40.48 0-11.2-11.36-11.2-29.824 0-41.184l141.76-144.128c11.2-11.36 29.344-11.36 40.512 0 0.672 0.672 0.896 1.568 1.472 2.24l287.264 293.888c11.2 11.328 11.2 29.76 0 41.152z" />
</font>
</defs>
</svg>
